HIERARCHY
ROOT hip
{
	OFFSET 0.000000 0.000000 0.000000 
	CHANNELS 6 Xposition Yposition Zposition Xrotation Zrotation Yrotation
	JOINT abdomen
	{
		OFFSET 0.000000 3.402643 0.000000 
		CHANNELS 3 Xrotation Zrotation Yrotation
		JOINT chest
		{
			OFFSET 0.000000 8.438565 -0.680529 
			CHANNELS 3 Xrotation Zrotation Yrotation
			JOINT neck
			{
				OFFSET 0.000000 10.207942 -0.272212 
				CHANNELS 3 Xrotation Zrotation Yrotation
				JOINT head
				{
					OFFSET 0.000000 3.130431 0.000000 
					CHANNELS 3 Xrotation Zrotation Yrotation
					End Site
					{
						OFFSET 0.000000 3.130435 0.000000 
					}
				}
			}
			JOINT lCollar
			{
				OFFSET 3.470700 6.669187 -0.816635 
				CHANNELS 3 Yrotation Zrotation Xrotation
				JOINT lShldr
				{
					OFFSET 3.198488 0.000000 0.000000 
					CHANNELS 3 Zrotation Yrotation Xrotation
					JOINT lForeArm
					{
						OFFSET 10.139888 0.000000 0.000000 
						CHANNELS 3 Yrotation Zrotation Xrotation
						JOINT lHand
						{
							OFFSET 8.370511 0.000000 0.000000 
							CHANNELS 3 Zrotation Yrotation Xrotation
							End Site
							{
								OFFSET 4.083176 0.000000 0.000000 
							}
						}
					}
				}
			}
			JOINT rCollar
			{
				OFFSET -3.470700 6.669187 -0.816635 
				CHANNELS 3 Yrotation Zrotation Xrotation
				JOINT rShldr
				{
					OFFSET -3.198488 0.000000 0.000000 
					CHANNELS 3 Zrotation Yrotation Xrotation
					JOINT rForeArm
					{
						OFFSET -10.139888 0.000000 0.000000 
						CHANNELS 3 Yrotation Zrotation Xrotation
						JOINT rHand
						{
							OFFSET -8.370511 0.000000 0.000000 
							CHANNELS 3 Zrotation Yrotation Xrotation
							End Site
							{
								OFFSET -4.083176 0.000000 0.000000 
							}
						}
					}
				}
			}
		}
	}
	JOINT lThigh
	{
		OFFSET 5.308129 -1.633274 1.361059 
		CHANNELS 3 Xrotation Zrotation Yrotation
		JOINT lShin
		{
			OFFSET -2.041588 -20.007561 0.000000 
			CHANNELS 3 Xrotation Zrotation Yrotation
			JOINT lFoot
			{
				OFFSET 0.000000 -19.190928 -1.224953 
				CHANNELS 3 Xrotation Yrotation Zrotation
				End Site
				{
					OFFSET 0.000000 -2.449906 4.627600 
				}
			}
		}
	}
	JOINT rThigh
	{
		OFFSET -5.308129 -1.633274 1.361059 
		CHANNELS 3 Xrotation Zrotation Yrotation
		JOINT rShin
		{
			OFFSET 2.041588 -20.007561 0.000000 
			CHANNELS 3 Xrotation Zrotation Yrotation
			JOINT rFoot
			{
				OFFSET 0.000000 -19.190928 -1.224953 
				CHANNELS 3 Xrotation Yrotation Zrotation
				End Site
				{
					OFFSET 0.000000 -2.449906 4.627600 
				}
			}
		}
	}
}
MOTION
Frames: 10
Frame Time: 0.033333
9.107854 43.761063 -59.148201 -1.710069 2.040107 33.259453 0.000000 0.000000 0.000000 55.535419 4.462153 8.879148 -8.603516 0.000000 0.000000 -25.708372 -9.126149 36.811794 -2.957607 -0.090307 -0.002318 -72.726471 -1.141478 -27.884769 -34.910950 -26.768023 6.427305 27.250208 -27.639343 12.989135 2.957607 0.090307 -0.002334 41.056351 35.200111 -59.620735 57.443714 19.700430 -1.289861 -12.114513 9.990314 35.091885 -7.283937 29.446239 3.740859 17.868410 -5.996148 2.182886 -3.792761 -1.850106 -18.693325 -14.101635 -41.249416 -11.540295 51.178265 4.583904 8.565734 -21.085802 7.682036 21.095062 
8.843179 43.567539 -59.358829 -1.494469 1.200763 34.578056 0.000000 0.000000 0.000000 54.214653 5.520208 8.656412 -8.603516 0.000000 0.000000 -25.293564 -9.153843 36.481918 -2.957607 -0.090307 -0.002318 -73.013771 -1.084499 -28.602262 -35.196140 -26.983040 6.229688 27.181128 -27.546803 13.376027 2.957607 0.090307 -0.002334 38.237499 36.731792 -62.150883 63.527130 21.688038 -2.896705 -8.411801 3.315089 41.518116 -7.889972 29.449791 3.254148 18.069714 -5.994617 2.300235 -3.194963 -2.989641 -20.047667 -11.904403 -41.564960 -11.824389 50.304333 4.825810 8.157710 -22.723104 7.741779 22.515223 
8.476192 43.228992 -59.643330 -1.367370 0.937233 36.012791 0.000000 0.000000 0.000000 54.094002 5.652842 8.822117 -8.603516 0.000000 0.000000 -25.986908 -8.852300 35.393528 -2.957607 -0.090307 -0.002318 -72.709892 -2.530672 -29.981678 -35.697861 -27.490541 6.108047 27.088398 -27.416920 13.816749 2.957607 0.090307 -0.002334 34.539547 38.913406 -64.420349 69.038086 24.020123 -4.199220 -7.823952 -0.609339 50.349522 -10.280957 29.728952 1.980992 18.777336 -6.146362 2.329491 -2.960693 -5.727192 -22.272701 -9.619159 -42.502335 -12.508045 49.701508 4.632591 7.938437 -24.924395 7.542418 23.714266 
8.109089 42.799351 -59.910843 -1.132958 0.917789 37.550217 0.000000 0.000000 0.000000 54.418140 5.261951 9.209385 -8.603516 0.000000 0.000000 -27.031118 -8.492447 33.834538 -2.957607 -0.090307 -0.002318 -71.865974 -4.665215 -31.416729 -36.299633 -28.017616 6.011753 27.065710 -27.389313 14.344601 2.957607 0.090307 -0.002334 30.548941 41.815945 -65.830589 72.757538 25.745041 -4.813476 -10.794293 1.771239 58.643780 -13.786860 29.937122 0.307951 19.342882 -6.298640 2.136093 -3.495628 -8.489705 -24.298349 -7.158710 -43.617382 -13.358197 49.310070 4.388193 7.941110 -27.619440 6.538854 24.218758 
7.653837 42.275780 -60.164074 -0.693532 1.279203 39.486477 0.000000 0.000000 0.000000 55.249226 4.280339 9.607695 -8.603516 0.000000 0.000000 -28.469725 -8.118421 31.578276 -2.957607 -0.090307 -0.002318 -70.260124 -7.642707 -32.798519 -36.821911 -28.549847 5.909408 26.958099 -27.505733 14.850940 2.957607 0.090307 -0.002334 27.230677 44.545300 -65.765915 72.953247 26.068533 -3.855731 -11.910827 4.678767 64.428574 -17.947645 29.470350 -1.530523 19.811722 -6.386463 1.844038 -3.384098 -10.459935 -24.994585 -4.425159 -45.131775 -14.790286 49.038425 4.710250 8.500001 -30.855267 5.400055 24.704851 
7.343728 41.806366 -60.505459 -0.117214 1.220701 41.599068 0.000000 0.000000 0.000000 56.344025 3.189747 9.933671 -8.603516 0.000000 0.000000 -30.324312 -7.572340 29.200251 -2.957607 -0.090307 -0.002318 -68.240143 -11.496853 -33.823536 -36.828186 -28.507862 5.982937 26.920574 -27.822479 15.620344 2.957607 0.090307 -0.002334 23.897755 47.517097 -63.962944 67.315514 24.753967 -0.741253 -10.519464 5.138299 67.326576 -21.384888 28.621130 -2.794283 19.388458 -6.199879 1.348894 -3.096266 -12.432668 -25.302753 -2.424358 -46.261242 -16.405012 48.650726 5.227722 8.877728 -33.636925 3.858667 25.057299 
7.224193 41.484810 -60.861115 0.488373 1.113241 43.369053 0.000000 0.000000 0.000000 57.825966 1.946736 10.376237 -8.603516 0.000000 0.000000 -32.650410 -7.105178 26.992054 -2.957607 -0.090307 -0.002318 -65.873535 -15.654128 -34.458038 -36.553421 -28.006706 5.780324 26.869431 -28.199144 16.473396 2.957607 0.090307 -0.002334 21.834438 49.956039 -61.622013 60.600185 22.400471 2.454230 -10.183628 6.238334 66.822563 -26.130686 27.664297 -5.090339 20.302132 -6.299201 0.624611 -2.186561 -13.404489 -24.845495 -1.438824 -47.003002 -17.771059 48.422070 5.491147 9.006454 -35.312759 2.492288 24.006485 
7.383610 41.217419 -61.239548 0.859463 0.820220 44.446037 0.000000 0.000000 0.000000 59.805012 0.147348 11.141913 -8.603516 0.000000 0.000000 -35.446312 -6.618013 24.983833 -2.957607 -0.090307 -0.002318 -63.483677 -20.239325 -33.986725 -36.143044 -27.224899 5.449375 26.758991 -28.384415 17.287741 2.957607 0.090307 -0.002334 21.251421 50.763279 -59.737461 54.558239 19.479956 4.530673 -10.634964 9.016687 64.361153 -29.513565 26.527948 -6.625004 20.639759 -6.274806 0.061026 -1.931227 -13.781671 -24.611631 -1.777600 -47.402012 -18.318821 48.463352 5.129823 9.059789 -34.996948 1.900654 21.616676 
7.779038 41.163372 -61.563820 1.523450 0.234292 45.123455 0.000000 0.000000 0.000000 61.308907 -1.571912 11.485755 -8.603516 0.000000 0.000000 -37.904869 -6.060488 23.605646 -2.957607 -0.090307 -0.002318 -61.606846 -24.408834 -33.410725 -35.069206 -26.046768 5.705709 26.765253 -28.638861 17.884371 2.957607 0.090307 -0.002334 21.655281 50.212254 -59.039806 50.094795 17.282356 5.388169 -11.587935 13.728068 61.969875 -31.766026 25.165092 -7.186983 20.332478 -6.295782 -0.039900 -2.364889 -13.245685 -24.552530 -3.203854 -47.900208 -17.161196 48.705833 4.905211 8.987312 -33.917522 0.827696 18.770447 
8.353824 41.200306 -61.814217 2.080253 -0.741698 45.724888 0.000000 0.000000 0.000000 61.805233 -2.306690 11.487509 -8.603516 0.000000 0.000000 -39.149479 -5.429681 22.851299 -2.957607 -0.090307 -0.002318 -60.668091 -27.314402 -32.159897 -33.521286 -24.196945 6.189151 26.831116 -28.986633 18.216324 2.957607 0.090307 -0.002334 22.924515 48.887459 -59.529621 47.427589 15.531074 5.021057 -12.760863 18.845242 58.658314 -32.746899 24.009836 -6.874357 19.345985 -6.110384 -0.131535 -2.026508 -11.935791 -23.627392 -4.727833 -47.807812 -15.407206 49.100628 5.130062 8.869989 -32.561802 -0.581515 15.741505 
